<?xml version="1.0" encoding="UTF-8" standalone="no"?>
<svg
   width="7"
   height="12"
   viewBox="0 0 7 12"
   fill="none"
   version="1.1"
   id="svg4"
   sodipodi:docname="flechita.svg"
   inkscape:version="1.1.2 (1:1.1+202202050950+0a00cf5339)"
   xmlns:inkscape="http://www.inkscape.org/namespaces/inkscape"
   xmlns:sodipodi="http://sodipodi.sourceforge.net/DTD/sodipodi-0.dtd"
   xmlns="http://www.w3.org/2000/svg"
   xmlns:svg="http://www.w3.org/2000/svg">
  <defs
     id="defs8" />
  <sodipodi:namedview
     id="namedview6"
     pagecolor="#505050"
     bordercolor="#ffffff"
     borderopacity="1"
     inkscape:pageshadow="0"
     inkscape:pageopacity="0"
     inkscape:pagecheckerboard="1"
     showgrid="false"
     inkscape:zoom="72.5"
     inkscape:cx="0.71724138"
     inkscape:cy="6.0068966"
     inkscape:window-width="1920"
     inkscape:window-height="1031"
     inkscape:window-x="0"
     inkscape:window-y="26"
     inkscape:window-maximized="1"
     inkscape:current-layer="svg4" />
  <path
     d="M5.99864 5.94724C5.99234 5.84603 5.95236 5.74983 5.88506 5.67396L1.79607 1.13112C1.68716 1.00945 1.52152 0.955277 1.36175 0.989076C1.20199 1.02287 1.07248 1.13949 1.02218 1.29484C0.971889 1.45018 1.00848 1.62056 1.11813 1.74157L4.9338 5.97919L1.11813 10.2168C1.00848 10.3378 0.971887 10.5082 1.02218 10.6635C1.07248 10.8189 1.20199 10.9355 1.36175 10.9693C1.52152 11.0031 1.68716 10.9489 1.79607 10.8273L5.88506 6.28441C5.96718 6.19213 6.00819 6.0704 5.99864 5.94724Z"
     fill="#BFBFBF"
     stroke="#BFBFBF"
     stroke-width="1.2"
     id="path2"
     style="fill:#000000;fill-opacity:1;stroke:#000000;stroke-opacity:1" />
</svg>
